#!OML:ASF F:\VICON\USERDATA\INSTALL\rory3\rory3.ASF
:FULLY-SPECIFIED
:DEGREES
1434
root 2.94898 17.9085 4.46333 12.3225 -15.0147 -4.32658
lowerback -1.75618 -0.936401 1.30318
upperback -4.01506 -1.24454 0.639304
thorax -3.15338 -0.656227 -0.0592933
lowerneck -12.939 -2.15555 -5.16839
upperneck 35.3542 -2.77457 2.20206
head 14.4144 -1.68737 1.34901
rclavicle 4.1956e-014 5.1684e-015
rhumerus -50.1443 6.38033 -86.9213
rradius 69.8354
rwrist 7.76701
rhand -25.8534 -41.4062
rfingers 7.12502
rthumb 0.687353 -791.385
lclavicle 4.1956e-014 5.1684e-015
lhumerus -50.6235 -11.5103 88.6396
lradius 62.9153
lwrist -0.602121
lhand -31.8779 -41.6942
lfingers 7.12502
lthumb -5.13081 -11.7764
rfemur -79.5123 13.5555 25.4717
rtibia 126.232
rfoot -1.99455 -9.38931
rtoes -3.57438
lfemur -21.7201 2.42859 -20.6039
ltibia 34.2402
lfoot -5.70559 5.72581
ltoes -16.8424
1435
root 2.95453 17.7409 4.45168 12.6017 -15.3411 -3.98495
lowerback -1.93443 -0.865721 1.20632
upperback -4.13125 -1.15657 0.493162
thorax -3.17334 -0.612727 -0.15792
lowerneck -13.0224 -2.1422 -5.21804
upperneck 35.0057 -2.73173 2.22899
head 14.2721 -1.66557 1.37266
rclavicle -4.83295e-015 1.23246e-014
rhumerus -49.8398 5.94146 -86.8248
rradius 69.4236
rwrist 7.96414
rhand -25.5952 -40.9475
rfingers 7.12502
rthumb 0.936748 -790.925
lclavicle -4.83295e-015 1.23246e-014
lhumerus -50.9563 -11.2566 88.6005
lradius 62.783
lwrist -1.048
lhand -32.2186 -41.7361
lfingers 7.12502
lthumb -5.45984 -11.8265
rfemur -79.9368 13.3632 24.9418
rtibia 125.895
rfoot -2.23213 -9.16148
rtoes -0.762977
lfemur -22.6258 2.9923 -21.1906
ltibia 35.6716
lfoot -9.16894 6.10865
ltoes -17.6398
1436
root 2.95969 17.5378 4.42246 13.0365 -15.5538 -3.6029
lowerback -2.11896 -0.812199 0.999179
upperback -4.31883 -1.09122 0.346876
thorax -3.26181 -0.577718 -0.193878
lowerneck -13.1599 -2.1572 -5.12431
upperneck 34.6829 -2.74072 2.17396
head 14.1533 -1.65781 1.32921
rclavicle 4.16205e-015 -2.94201e-014
rhumerus -49.4303 5.4192 -86.7435
rradius 68.9365
rwrist 8.09638
rhand -26.1908 -39.9034
rfingers 7.12502
rthumb 0.361479 -789.883
lclavicle 4.16205e-015 -2.94201e-014
lhumerus -51.1651 -10.9879 88.5179
lradius 62.7031
lwrist -1.38497
lhand -32.0759 -41.8276
lfingers 7.12502
lthumb -5.32197 -11.9144
rfemur -80.4502 13.1736 24.4988
rtibia 125.935
rfoot -2.50884 -9.28756
rtoes -2.05037
lfemur -23.9098 3.53173 -21.8409
ltibia 37.4439
lfoot -12.2712 6.61766
ltoes -19.3795
1437
root 2.96442 17.3452 4.39306 13.3658 -15.4736 -3.4818
lowerback -2.2113 -0.847843 1.13073
upperback -4.37326 -1.14205 0.274316
thorax -3.27122 -0.60916 -0.342537
lowerneck -13.5827 -2.16654 -5.08385
upperneck 34.5553 -2.74505 2.20471
head 14.1904 -1.64367 1.33006
rclavicle -2.8302e-014 -7.95139e-016
rhumerus -49.0181 5.05665 -86.7055
rradius 68.5927
rwrist 8.39245
rhand -26.8034 -38.6111
rfingers 7.12502
rthumb -0.230206 -788.591
lclavicle -2.8302e-014 -7.95139e-016
lhumerus -51.12 -10.7774 88.4131
lradius 62.5494
lwrist -1.47475
lhand -31.5845 -41.9266
lfingers 7.12502
lthumb -4.84758 -12.002
rfemur -80.5606 12.8989 24.4347
rtibia 125.821
rfoot -2.62324 -9.40703
rtoes -1.90854
lfemur -25.2399 3.90253 -22.1094
ltibia 39.3389
lfoot -15.1154 6.53743
ltoes -17.3192
1438
root 2.96599 17.1717 4.37393 13.3081 -15.4126 -3.15572
lowerback -2.11098 -0.93935 1.06443
upperback -4.28048 -1.26608 0.152073
thorax -3.23459 -0.670482 -0.429375
lowerneck -14.0814 -2.15143 -5.06923
upperneck 34.5163 -2.69255 2.2024
head 14.2826 -1.61383 1.33123
rclavicle 5.33737e-014 1.35174e-014
rhumerus -48.5736 4.75429 -86.6969
rradius 68.3105
rwrist 8.72916
rhand -24.7931 -41.9723
rfingers 7.12502
rthumb 1.71137 -791.945
lclavicle 5.33737e-014 1.35174e-014
lhumerus -51.0165 -10.5136 88.278
lradius 62.3477
lwrist -1.72964
lhand -32.4193 -41.7818
lfingers 7.12502
lthumb -5.65354 -11.8772
rfemur -80.1112 12.4707 24.1975
rtibia 125.544
rfoot -2.48618 -9.19508
rtoes 1.28078
lfemur -26.3901 4.23848 -22.5456
ltibia 41.3776
lfoot -17.7523 5.87778
ltoes -12.2077
1439
root 2.96239 16.9985 4.36418 12.9465 -15.5529 -2.35684
lowerback -2.01461 -0.963608 0.429725
upperback -4.07622 -1.30313 -0.0970798
thorax -3.06862 -0.672041 -0.330644
lowerneck -14.4554 -2.21676 -5.19881
upperneck 34.395 -2.77466 2.35048
head 14.3213 -1.63999 1.39762
rclavicle 6.24681e-014 -1.11319e-014
rhumerus -48.1242 4.30897 -86.5737
rradius 68.166
rwrist 8.92723
rhand -25.1047 -41.2107
rfingers 7.12502
rthumb 1.41042 -791.186
lclavicle 6.24681e-014 -1.11319e-014
lhumerus -50.8133 -10.2377 88.1059
lradius 62.1503
lwrist -2.39302
lhand -32.6072 -41.9355
lfingers 7.12502
lthumb -5.83498 -12.0359
rfemur -79.5181 11.9862 23.4023
rtibia 125.289
rfoot -3.49789 -9.0006
rtoes -1.27035
lfemur -27.242 4.69418 -23.5186
ltibia 43.3987
lfoot -20.2063 5.25442
ltoes -8.69032
